<?xml version="1.0" encoding="UTF-8"?>
<svg viewBox="0 0 24 24" fill="none" xmlns="http://www.w3.org/2000/svg">
  <path d="M18 16.08c-.76 0-1.44.3-1.96.77L8.91 12.7c.05-.23.09-.46.09-.7s-.04-.47-.09-.7l7.05-4.11c.54.5 1.25.81 2.04.81 1.77 0 3.2-1.43 3.2-3.2S19.77 2 18 2s-3.2 1.43-3.2 3.2c0 .23.04.47.09.7l-7.05 4.11c-.54-.5-1.25-.81-2.04-.81-1.77 0-3.2 1.43-3.2 3.2s1.43 3.2 3.2 3.2c.79 0 1.5-.31 2.04-.81l7.05 4.11c-.05.23-.09.46-.09.7 0 1.77 1.43 3.2 3.2 3.2s3.2-1.43 3.2-3.2-1.43-3.2-3.2-3.2z" fill="currentColor" fill-rule="evenodd"/>
</svg>